<?xml version="1.0" encoding="utf-8"?>
<!-- Generator: Adobe Illustrator 24.0.0, SVG Export Plug-In . SVG Version: 6.00 Build 0)  -->
<svg version="1.1" id="Layer_1" xmlns="http://www.w3.org/2000/svg" xmlns:xlink="http://www.w3.org/1999/xlink" x="0px" y="0px"
	 viewBox="0 0 1000 1000" style="enable-background:new 0 0 1000 1000;" xml:space="preserve">
<style type="text/css">
	.st0{fill:#1ABC9C;}
	.st1{fill:#FFFFFF;}
</style>
<g>
	<g>
		<circle class="st0" cx="500" cy="362" r="278"/>
		<polygon class="st0" points="514.8,793.8 485.2,793.8 467.5,622.2 532.5,622.2 		"/>
	</g>
	<path class="st1" d="M456.7,307.6c0.6,3.8,4,6.7,7.9,6.7h8.2c4.9,0,8.7-4.2,8.1-8.9c-1.9-14-8.1-26.9-18.2-37.1
		c-7.2-7.3-11.7-16.5-13.1-26.6c-0.5-3.9-3.9-6.9-8-6.9h-8.1c-4.9,0-8.6,4.2-8.1,8.9c1.9,15.8,8.9,30.4,20.2,41.9
		C451.5,291.7,455.3,299.3,456.7,307.6z M512.3,307.6c0.6,3.8,4,6.7,7.9,6.7h8.2c4.9,0,8.7-4.2,8.1-8.9c-1.9-14-8.1-26.9-18.2-37.1
		c-7.2-7.3-11.7-16.5-13.1-26.6c-0.5-3.9-3.9-6.9-8-6.9h-8.1c-4.9,0-8.7,4.2-8.1,8.9c1.9,15.8,8.9,30.4,20.2,41.9
		C507.1,291.7,511,299.3,512.3,307.6z M592.2,330.2H409.4c-8.8,0-15.9,7.1-15.9,15.9v95.4c0,26.3,21.4,47.7,47.7,47.7h95.4
		c26.3,0,47.7-21.4,47.7-47.7h7.9c30.7,0,55.6-24.9,55.6-55.6S622.9,330.2,592.2,330.2z M592.2,409.7h-7.9V362h7.9
		c13.2,0,23.8,10.7,23.8,23.8C616.1,399,605.4,409.7,592.2,409.7z"/>
</g>
</svg>
