<?xml version="1.0" encoding="utf-8"?>
<!-- Generator: Adobe Illustrator 24.0.0, SVG Export Plug-In . SVG Version: 6.00 Build 0)  -->
<svg version="1.1" id="Layer_1" xmlns="http://www.w3.org/2000/svg" xmlns:xlink="http://www.w3.org/1999/xlink" x="0px" y="0px"
	 viewBox="0 0 1000 1000" style="enable-background:new 0 0 1000 1000;" xml:space="preserve">
<style type="text/css">
	.st0{fill:#D35400;}
	.st1{fill:#FFFFFF;}
</style>
<g>
	<circle class="st0" cx="500" cy="364" r="278"/>
	<polygon class="st0" points="514.8,789.8 485.2,789.8 467.5,618.3 532.5,618.3 	"/>
	<path class="st1" d="M427.2,358l66.8-66.8l-21.9-21.9l-30.6,30.6c-1.5,1.5-4,1.5-5.6,0l0,0l-5.6-5.6c-1.5-1.5-1.5-4,0-5.6
		l30.6-30.6l-16.7-16.7c-6.2-6.2-16.1-6.2-22.3,0L377.5,286c-6.1,6.2-6.2,16.1,0,22.3L427.2,358L427.2,358z M620.2,300
		c9.3-9.3,9.3-24.4,0-33.7l-22.5-22.5c-9.3-9.3-24.4-9.3-33.7,0l-22.9,22.9l56.2,56.2L620.2,300L620.2,300z M529.8,277.9
		L382.3,425.4l-9.3,53.4c-1.3,7.2,5,13.5,12.2,12.2l53.4-9.4l147.5-147.5L529.8,277.9z M622.5,419.7L605.8,403l-30.6,30.6
		c-1.5,1.5-4,1.5-5.6,0L564,428c-1.5-1.5-1.5-4,0-5.6l30.6-30.6l-21.9-21.9l-66.8,66.8l49.8,49.8c6.2,6.2,16.1,6.2,22.3,0l44.6-44.6
		C628.7,435.8,628.7,425.8,622.5,419.7L622.5,419.7z"/>
</g>
</svg>
