<?xml version="1.0" encoding="utf-8"?>
<!-- Generator: Adobe Illustrator 24.0.0, SVG Export Plug-In . SVG Version: 6.00 Build 0)  -->
<svg version="1.1" id="Layer_1" xmlns="http://www.w3.org/2000/svg" xmlns:xlink="http://www.w3.org/1999/xlink" x="0px" y="0px"
	 viewBox="0 0 1000 1000" style="enable-background:new 0 0 1000 1000;" xml:space="preserve">
<style type="text/css">
	.st0{fill:#E17055;}
	.st1{fill:#FFFFFF;}
</style>
<g>
	<circle class="st0" cx="500" cy="362" r="278"/>
	<polygon class="st0" points="514.8,793.8 485.2,793.8 467.5,622.2 532.5,622.2 	"/>
</g>
<path class="st1" d="M677,206c-38.2,2.2-114,10-160.8,38.7c-3.2,2-5.1,5.5-5.1,9.2v253.4c0,8,8.8,13.1,16.2,9.4
	c48.2-24.2,117.9-30.9,152.3-32.7c11.8-0.6,20.9-10,20.9-21.4V227.4C700.6,215.1,689.9,205.3,677,206z M483.8,244.8
	C437,216.1,361.1,208.2,323,206c-12.8-0.7-23.5,9-23.5,21.4v235.3c0,11.3,9.1,20.7,20.9,21.4c34.5,1.8,104.2,8.4,152.4,32.7
	c7.4,3.7,16.2-1.4,16.2-9.4V253.8C488.9,250.1,487,246.7,483.8,244.8z"/>
</svg>
