<?xml version="1.0" encoding="utf-8"?>
<!-- Generator: Adobe Illustrator 24.0.0, SVG Export Plug-In . SVG Version: 6.00 Build 0)  -->
<svg version="1.1" id="Layer_1" xmlns="http://www.w3.org/2000/svg" xmlns:xlink="http://www.w3.org/1999/xlink" x="0px" y="0px"
	 viewBox="0 0 1000 1000" style="enable-background:new 0 0 1000 1000;" xml:space="preserve">
<style type="text/css">
	.st0{fill:#3498DB;}
	.st1{fill:#FFFFFF;}
</style>
<g>
	<g>
		<circle class="st0" cx="500" cy="364" r="278"/>
		<polygon class="st0" points="514.8,792.8 485.2,792.8 467.5,621.2 532.5,621.2 		"/>
	</g>
	<path class="st1" d="M499.9,236c0.4,2.5,8.6,50.2,8.6,68.4c0,27.8-14.8,47.6-36.6,55.6l6.9,126.5c0.4,7.3-5.4,13.4-12.8,13.4h-34
		c-7.3,0-13.1-6.1-12.8-13.4l6.9-126.5c-21.9-8-36.6-27.8-36.6-55.6c0-18.3,8.1-65.9,8.6-68.4c1.7-10.8,24.1-10.9,25.5,0.6v75
		c0.7,1.8,8,1.7,8.5,0c0.7-13.4,4.2-74,4.3-75.3c1.8-11.1,23.8-11.1,25.5,0c0.1,1.4,3.5,61.9,4.3,75.3c0.5,1.7,7.9,1.8,8.5,0v-75
		C475.8,225.1,498.2,225.2,499.9,236z M563.3,387.8l-8,98.4c-0.6,7.4,5.3,13.8,12.7,13.8h29.8c7.1,0,12.8-5.7,12.8-12.8V240.7
		c0-7-5.7-12.8-12.8-12.8C553.9,227.9,480.1,322.8,563.3,387.8L563.3,387.8z"/>
</g>
</svg>
