<?xml version="1.0" encoding="utf-8"?>
<!-- Generator: Adobe Illustrator 24.0.0, SVG Export Plug-In . SVG Version: 6.00 Build 0)  -->
<svg version="1.1" id="Layer_1" xmlns="http://www.w3.org/2000/svg" xmlns:xlink="http://www.w3.org/1999/xlink" x="0px" y="0px"
	 viewBox="0 0 1000 1000" style="enable-background:new 0 0 1000 1000;" xml:space="preserve">
<style type="text/css">
	.st0{fill:#0984E3;}
	.st1{fill:#FFFFFF;}
</style>
<g>
	<circle class="st0" cx="500" cy="362" r="278"/>
	<polygon class="st0" points="514.8,793.8 485.2,793.8 467.5,622.2 532.5,622.2 	"/>
</g>
<path class="st1" d="M432.6,277c0-17.7,9.7-33.1,24.1-41.4V354h28.9V228.9h28.9V354h28.9V235.6c14.3,8.4,24.1,23.7,24.1,41.4v77
	h28.9v-77c0-42.5-34.5-77-77-77h-38.5c-42.5,0-77,34.5-77,77v77h28.9v-77H432.6z M633.7,405.7l-6.4-19.3c-2.6-7.9-10-13.2-18.3-13.2
	H391c-8.3,0-15.6,5.3-18.3,13.2l-6.4,19.3c-4.1,12.5,5.2,25.3,18.3,25.3v67.4c0,5.3,4.3,9.6,9.6,9.6h19.3c5.3,0,9.6-4.3,9.6-9.6V431
	h154v67.4c0,5.3,4.3,9.6,9.6,9.6H606c5.3,0,9.6-4.3,9.6-9.6V431C628.6,431,637.9,418.1,633.7,405.7z"/>
</svg>
